<?xml version="1.0" encoding="utf-8"?>
<!-- Generator: Adobe Illustrator 19.2.1, SVG Export Plug-In . SVG Version: 6.00 Build 0)  -->
<svg version="1.1" id="layer" xmlns="http://www.w3.org/2000/svg" xmlns:xlink="http://www.w3.org/1999/xlink" x="0px" y="0px"
	 viewBox="0 0 652 652" style="enable-background:new 0 0 652 652;" xml:space="preserve">
<style type="text/css">
	.st0{fill:#0065A1;}
</style>
<g>
	<path class="st0" d="M565.6,336.1c-1,7.3-5.5,13.6-13.2,16.5c-12.3,4.7-24.3-2.2-29.2-14.4c-1.7-4.2-2.3-8.5-1.8-12.6l-45.1,17.8
		c-2.3,4-5.9,7.3-11,9.2c-9.7,3.7-19.2,0.3-25.1-7.2l94.3-37.1c3-1.2,5.7-1.5,8-1.5c8.4,0,16,5.1,20.2,13.2l21.1-8.3
		c-7.2-14.9-22.5-25.2-40.1-25.2c-21.4,0-39.3,15.1-43.5,35.3c-4.3-20.1-22.1-35.2-43.5-35.2c-14.5,0-27.4,6.9-35.5,17.7v-15.3
		h-19.4v-23L376.8,276v45.7c-3.7-19.4-21.7-35.2-43.5-35.2c-22.6,0-41.3,16.9-44.1,38.8v-5.2c0-20-11.5-34.2-31-34.2
		c-14.9,0-20.2,7.5-23,12.1v-9.3h-23.5v32.7c-4.4-20-22.2-35-43.5-35c-21.9,0-40.1,15.9-43.8,36.8c-0.1-7.5-1.7-14.6-4.6-20.9
		l-48.3,18.9l5.9,15.1l23.3-9.2c-0.3,10.7-6.3,20.3-17.6,24.6c-15.8,6-31.2-2.5-37.4-17.9c-6.1-15.4-0.7-31.9,15.1-37.9
		c10.5-4,20.8-1.6,28.3,4.9l23.9-9.4c-9.5-12-24.2-19.6-40.6-19.6c-28.7,0-51.9,23.2-51.9,51.9c0,28.7,23.2,51.9,51.9,51.9
		c25.8,0,47.3-18.9,51.2-43.6c0.5,24.2,20.2,43.6,44.5,43.6c21.3,0,39.1-15,43.5-35v31.8h25.1c0,0-0.1-47.4,0-48.6L188,343
		c-2.2,4.2-5.9,7.6-11.1,9.6c-9.8,3.7-19.4,0.3-25.3-7.4c0,0,92.6-36.4,92.9-36.5c2.4-1,4.7-1.3,6.7-1.3c13.1,0,13.1,13.6,13.1,19.4
		v45.6h25v-35.7c2.8,21.9,21.5,38.8,44.1,38.8c21.3,0,39.1-15,43.5-34.9v31.8h24.9v-48.3L353,343.3c-2.3,4.1-5.9,7.4-11,9.3
		c-9.7,3.7-19.3,0.3-25.2-7.2l104.1-40.9c-5.5,7.4-8.8,16.6-8.8,26.6c0,24.6,19.9,44.5,44.5,44.5c21.4,0,39.3-15.1,43.5-35.3
		c4.3,20.1,22.1,35.2,43.5,35.2c21.6,0,39.6-15.4,43.6-35.8L565.6,336.1z M146,329.9c-0.3-9,4.3-17.1,13.6-20.7
		c9.1-3.5,18.1-0.7,24,5.9L146,329.9z M311.1,330.2c-0.4-9,4.2-17.3,13.6-20.9c9.2-3.5,18.2-0.7,24.2,6L311.1,330.2z M447.9,309.3
		c9.2-3.5,18.3-0.6,24.2,6.1l-37.8,14.9C433.9,321.2,438.6,312.8,447.9,309.3"/>
	<polygon class="st0" points="590.9,270.6 585,270.6 585,268.2 599.2,268.2 599.2,270.6 593.3,270.6 593.3,286.5 590.9,286.5 	"/>
	<polygon class="st0" points="601.7,268.2 605.3,268.2 611.1,282.1 611.2,282.1 617,268.2 620.7,268.2 620.7,286.5 618.2,286.5 
		618.2,271.5 618.2,271.5 612,286.5 610.3,286.5 604.2,271.5 604.1,271.5 604.1,286.5 601.7,286.5 	"/>
</g>
</svg>
